<svg xmlns="http://www.w3.org/2000/svg" width="640" height="360" style="background:#fff" viewBox="0 0 640 360">
  <defs>
    <linearGradient id="picture-a" x1="-.734%" y1="0%" y2="99.004%">
      <stop offset="0%" stop-color="#083B72"/>
      <stop offset="100%" stop-color="#18A5D4"/>
    </linearGradient>
  </defs>
  <g fill="none" fill-rule="evenodd">
    <path fill="url(#picture-a)" d="M640,327.742999 L640,0 L0,0 L0,307.840584 L421.393858,359.159377 L640,327.742999 Z"/>
    <g transform="translate(131 150)">
      <path fill="#FFF" d="M50.6,5.9 C48.7,2.8 45,0.3 38.5,0.3 L20.1,0.3 C17.3,0.3 15.4,1.6 14.5,2.3 C12.4,4 11.8,6.1 11.3,7.8 L1.3,41.4 C0.5,44 1.2,45.4 1.9,46.1 C2.2,46.4 3.3,47.4 6.8,47.4 L25.9,47.4 C33.3,47.4 38.2,44.1 40.8,41.6 C46.1,36.5 48.8,28.4 50.3,23.3 C51.9,17.7 53.7,10.9 50.6,5.9 Z M41.3,22.6 C39,30.6 36.7,34.1 35,35.9 C32,39.2 28.5,40.3 23.6,40.3 L13.4,40.3 C12.6,40.3 11.7,40.3 11.3,39.6 C10.8,38.9 11.2,38 11.4,37 L19.3,10.1 C19.6,9.1 20.3,8.2 20.9,7.7 C21.6,7.2 22.6,7.2 23.1,7.2 L32.3,7.2 C35.5,7.2 39.5,7.8 41.4,10.6 C43.6,13.9 42.5,18.6 41.3,22.6 Z M80.9,11.7 L60.7,11.7 L58.9,17.7 L76.4,17.7 C77.6,17.7 79.1,17.9 79.8,19.2 C80.4,20.3 80.1,21.5 79.8,22.6 L79.1,25.1 L63.7,25.1 C61.8,25.1 59.4,25.2 56.6,27.2 C53.2,29.6 52,32.7 51,35.9 C50.2,38.5 49.1,43.1 51.2,45.6 C52.7,47.3 55.2,47.3 57.1,47.3 L74.1,47.3 C75.8,47.3 77.8,47.2 79.4,45.9 C81.1,44.6 81.8,42.6 82.2,41.3 L87.6,22.8 C88.8,18.8 88.5,15.9 87.4,14.4 C86.4,12.8 84,11.7 80.9,11.7 Z M75,39.4 C74.8,39.9 74.7,40.4 74,40.9 C73.3,41.3 72.6,41.3 72.1,41.3 L61.1,41.3 C60.1,41.3 59.2,40.8 58.9,40.2 C58.3,39.2 58.7,37.3 59,36.2 C59.7,33.6 60.6,32.7 61,32.4 C62.2,31.3 63.7,31.2 64.2,31.2 L77.3,31.2 L75,39.4 Z M100.3,39.8 C98.6,37.9 99.8,34.6 100.5,32.1 L104.7,17.8 L114.6,17.8 L116.4,11.8 L106.5,11.8 L109.9,0.4 L102,0.4 L98.6,11.8 L93.7,11.8 L91.9,17.8 L96.8,17.8 L91.5,35.7 C90.2,40.2 90.7,42.8 92.4,44.7 C94.1,46.5 96.4,47.3 101.2,47.3 L106.1,47.3 L107.9,41.3 L106,41.3 C104.5,41.3 101.6,41.2 100.3,39.8 Z M141.2,11.7 L121,11.7 L119.2,17.7 L136.7,17.7 C137.9,17.7 139.4,17.9 140.1,19.2 C140.7,20.3 140.4,21.5 140.1,22.6 L139.4,25.1 L123.9,25.1 C122,25.1 119.6,25.2 116.8,27.2 C113.4,29.6 112.2,32.7 111.2,35.9 C110.4,38.5 109.3,43.1 111.4,45.6 C112.9,47.3 115.4,47.3 117.3,47.3 L134.3,47.3 C136,47.3 138,47.2 139.6,45.9 C141.3,44.6 142,42.6 142.4,41.3 L147.8,22.8 C149,18.8 148.7,15.9 147.6,14.4 C146.6,12.8 144.2,11.7 141.2,11.7 Z M135.2,39.4 C135,39.9 134.9,40.4 134.2,40.9 C133.5,41.3 132.8,41.3 132.3,41.3 L121.3,41.3 C120.3,41.3 119.4,40.8 119.1,40.2 C118.5,39.2 118.9,37.3 119.2,36.2 C119.9,33.6 120.8,32.7 121.2,32.4 C122.4,31.3 123.9,31.2 124.4,31.2 L137.5,31.2 L135.2,39.4 Z M375.1,15.1 C372.3,14.3 369.4,16 368.7,18.8 C368.5,19.5 368.5,20.3 368.6,21 L353.6,32.1 C353.5,32.1 353.4,32 353.2,32 C352.1,31.7 350.9,31.8 349.9,32.2 L336.7,23.3 C336.8,20.9 335.3,18.6 332.8,18 C330,17.2 327.1,18.9 326.4,21.7 C326.2,22.3 326.2,23 326.3,23.6 L314.1,33 C313.8,32.9 313.6,32.8 313.3,32.7 C310.5,31.9 307.6,33.6 306.9,36.4 C306.2,39.2 307.8,42.1 310.6,42.8 C313.4,43.5 316.3,41.9 317,39.1 C317.1,38.6 317.2,38.1 317.1,37.5 L329.5,27.9 C329.7,28 329.8,28.1 330,28.1 C331.2,28.4 332.4,28.3 333.5,27.8 L346.5,36.6 C346.3,39.1 347.9,41.5 350.4,42.1 C353.2,42.9 356.1,41.2 356.8,38.4 C357,37.7 357,37 356.9,36.3 L372,25.1 C372.1,25.1 372.2,25.2 372.3,25.2 C375.1,26 378,24.3 378.7,21.5 C379.6,18.8 377.9,15.9 375.1,15.1 Z"/>
      <g fill="#4EB6D9" fill-rule="nonzero" transform="translate(146 11)">
        <path d="M142 36.4L143.8 30.4 126.4 30.4C123.5 30.4 120.3 30 120.5 26.2 120.5 25.1 121 22.8 121.5 21.3L142 21.3C143.4 21.3 144.8 21 146.2 20 148.1 18.5 148.9 16.4 149.5 14.6 150.8 10.1 151.3 5.7 147.9 3 145.2.9 141 .7 136.8.7 133.4.7 127.4.7 122.5 4.1 117.6 7.5 115.8 12.4 113.9 19 112.5 23.7 111.3 28.6 112.6 32 114.3 36.2 118.5 36.5 122.2 36.5L142 36.5 142 36.4zM123.1 15.1C123.9 12.7 124.4 10.8 126.5 9 129.4 6.6 132.6 6.6 134.7 6.6 136.9 6.6 139.4 6.7 140.9 8.2 141.8 9.1 142.4 10.8 141.8 13 141.5 13.9 141 15.1 139.4 15.1L123.1 15.1 123.1 15.1zM.1 36.4L8 36.4 16.1 8.7C16.2 8.2 16.4 7.7 16.9 7.2 17.4 6.8 17.9 6.8 18.4 6.8L26.4 6.8C29.3 6.8 30.7 7.5 31.4 9 32.2 10.7 31.7 13 31 15.3L24.8 36.4 32.7 36.4 39.6 12.9C41 8 40.2 5.3 38.8 3.6 36.7 1 33.4.7 29.7.7L17.1.7C15.6.7 13.2.6 11.2 2.3 9.8 3.4 9.2 5.1 8.9 6.1L.1 36.4z"/>
        <polygon points="83.8 .9 75.8 .9 55.7 28.1 52.3 .7 44.2 .7 49.6 36.2 40.7 47.8 48.7 47.8"/>
        <path d="M108.4,30.3 L88.1,30.3 C87.8,30.3 87.5,30.4 87.6,30 C87.7,29.7 88,29.5 88.4,29.1 L112.5,10.1 C113.8,9.1 115.2,8 116,5.3 C116.8,2.5 115.4,0.8 112.7,0.8 L87.5,0.8 L85.7,6.8 L105.1,6.8 C105.6,6.8 105.7,7.1 105.6,7.3 C105.6,7.4 105.4,7.6 104.8,8.1 L81.1,26.4 C79.5,27.6 78,28.8 77.2,31.5 C75.9,36.1 79.6,36.3 80.8,36.3 L106.5,36.3 L108.4,30.3 Z"/>
      </g>
    </g>
  </g>
</svg>
